<svg width="428" height="277" viewBox="0 0 428 277" fill="none" xmlns="http://www.w3.org/2000/svg">
<g clip-path="url(#clip0)">
<path d="M323.278 220.586C322.106 212.692 321.797 204.694 322.355 196.733L323.278 183.558C318.191 193.681 319.341 207.006 323.278 220.586V220.586Z" fill="#CACACA"/>
<path d="M327.245 222.79C326.681 218.08 326.532 213.329 326.801 208.592L327.245 200.75C324.797 206.776 325.35 214.707 327.245 222.79Z" fill="#CACACA"/>
<path d="M344.877 232.489V236.898C344.875 237.248 344.736 237.583 344.488 237.831C344.24 238.078 343.905 238.218 343.555 238.22H341.351C341.293 238.22 341.236 238.231 341.182 238.253C341.129 238.275 341.08 238.308 341.039 238.349C340.998 238.39 340.966 238.438 340.944 238.492C340.922 238.545 340.91 238.603 340.91 238.661V274.808C340.909 275.158 340.769 275.493 340.521 275.741C340.274 275.988 339.938 276.128 339.588 276.13H312.702C312.351 276.13 312.015 275.99 311.767 275.742C311.519 275.495 311.38 275.158 311.38 274.808V238.661C311.379 238.544 311.333 238.432 311.25 238.35C311.168 238.267 311.056 238.22 310.939 238.22H308.294C307.944 238.22 307.608 238.08 307.36 237.832C307.112 237.584 306.972 237.248 306.972 236.898V232.489C306.972 232.316 307.006 232.144 307.072 231.983C307.139 231.823 307.236 231.677 307.359 231.554C307.482 231.431 307.627 231.334 307.788 231.267C307.949 231.201 308.121 231.167 308.294 231.167H343.555C343.905 231.168 344.241 231.308 344.489 231.555C344.737 231.803 344.876 232.139 344.877 232.489Z" fill="#F2F2F2"/>
<path d="M340.95 239.146H311.419V240.468H340.95V239.146Z" fill="#E6E6E6"/>
<path d="M340.91 258.605C331.029 262.695 321.039 262.74 310.939 258.605V249.289C320.662 246.023 331.187 246.023 340.91 249.289V258.605Z" fill="#E6E6E6"/>
<path d="M198.995 110.372C207.854 110.372 215.036 103.189 215.036 94.328C215.036 85.4672 207.854 78.2842 198.995 78.2842C190.135 78.2842 182.953 85.4672 182.953 94.328C182.953 103.189 190.135 110.372 198.995 110.372Z" fill="#2F2E41"/>
<path d="M203.464 78.7258C206.24 78.7262 208.969 79.447 211.383 80.8179C213.797 82.1887 215.814 84.1627 217.237 86.5468C218.661 88.9309 219.441 91.6434 219.502 94.4194C219.563 97.1953 218.902 99.9395 217.585 102.384C218.976 100.643 219.989 98.6325 220.56 96.479C221.131 94.3255 221.246 92.0766 220.9 89.8759C220.554 87.6751 219.753 85.5706 218.548 83.6965C217.344 81.8224 215.762 80.2198 213.904 78.9908C212.046 77.7618 209.953 76.9334 207.757 76.5584C205.561 76.1834 203.311 76.27 201.151 76.8126C198.99 77.3553 196.967 78.3421 195.208 79.7103C193.45 81.0784 191.997 82.7978 190.94 84.7589C192.439 82.8761 194.344 81.3558 196.512 80.3112C198.681 79.2666 201.057 78.7247 203.464 78.7258Z" fill="#2F2E41"/>
<path d="M169.018 94.294C195.043 94.294 216.141 73.1938 216.141 47.1653C216.141 21.1369 195.043 0.036705 169.018 0.036705C142.993 0.036705 121.896 21.1369 121.896 47.1653C121.896 73.1938 142.993 94.294 169.018 94.294Z" fill="#2F2E41"/>
<path d="M132.035 17.9243C140.154 8.79149 151.504 3.171 163.689 2.24903C175.873 1.32706 187.939 5.17573 197.341 12.9828C196.955 12.6164 196.574 12.2471 196.174 11.8911C186.832 3.59289 174.578 -0.655366 162.106 0.0804297C149.633 0.816225 137.963 6.47583 129.662 15.8149C121.361 25.1539 117.108 37.4078 117.838 49.8822C118.568 62.3566 124.222 74.0303 133.557 82.3365C133.957 82.6925 134.368 83.0279 134.777 83.3678C125.924 74.9447 120.689 63.4109 120.177 51.2006C119.665 38.9903 123.917 27.0588 132.035 17.9243Z" fill="#2F2E41"/>
<path d="M168.619 93.8946C185.381 93.8946 198.969 80.3046 198.969 63.5406C198.969 46.7765 185.381 33.1865 168.619 33.1865C151.857 33.1865 138.269 46.7765 138.269 63.5406C138.269 80.3046 151.857 93.8946 168.619 93.8946Z" fill="#FFB8B8"/>
<path d="M184.123 102.135L151.644 103.595C151.644 103.595 154.355 120.394 136.784 121.991C119.212 123.589 103.239 118.796 96.8492 130.778C90.4597 142.76 93.2137 185.424 93.2137 185.424C93.2137 185.424 105.194 228.559 114.778 234.949C124.363 241.34 208.225 232.553 208.225 232.553L243.322 188.232L242.133 154.051C241.512 136.202 225.218 122.801 207.669 126.104C207.324 126.169 206.977 126.239 206.628 126.314C206.628 126.314 202.772 123.432 192.194 118.142C185.725 114.907 184.123 102.135 184.123 102.135Z" fill="#CACACA"/>
<path d="M113.622 121.193C113.622 121.193 121.341 135.201 118.146 155.17C114.952 175.14 128.356 217.376 128.356 217.376L137.94 214.979C137.94 214.979 131.551 173.442 133.148 163.857C134.746 154.271 135.186 125.985 127.199 121.193C119.213 116.4 113.622 121.193 113.622 121.193Z" fill="#2F2E41"/>
<path d="M206.066 128.537L209.423 216.976L215.813 220.97C215.813 220.97 224.997 123.917 220.205 123.917H210.455C209.878 123.917 209.306 124.031 208.773 124.252C208.24 124.473 207.755 124.796 207.347 125.205C206.939 125.613 206.615 126.097 206.395 126.63C206.174 127.164 206.06 127.735 206.06 128.312C206.06 128.387 206.062 128.462 206.066 128.537Z" fill="#2F2E41"/>
<path d="M132.749 215.379C134.954 215.379 136.742 213.591 136.742 211.385C136.742 209.179 134.954 207.391 132.749 207.391C130.543 207.391 128.755 209.179 128.755 211.385C128.755 213.591 130.543 215.379 132.749 215.379Z" fill="#68B6FC"/>
<path d="M212.618 219.373C214.823 219.373 216.611 217.585 216.611 215.379C216.611 213.173 214.823 211.385 212.618 211.385C210.412 211.385 208.624 213.173 208.624 215.379C208.624 217.585 210.412 219.373 212.618 219.373Z" fill="#68B6FC"/>
<path d="M142.661 25.5977V55.9518H149.69L158.635 46.3663L157.437 55.9518H188.506L186.589 46.3663L190.423 55.9518H195.375V25.5977H142.661Z" fill="#2F2E41"/>
<path d="M137.869 61.5436C139.193 61.5436 140.265 59.5766 140.265 57.1502C140.265 54.7238 139.193 52.7569 137.869 52.7569C136.546 52.7569 135.473 54.7238 135.473 57.1502C135.473 59.5766 136.546 61.5436 137.869 61.5436Z" fill="#FFB8B8"/>
<path d="M199.368 61.5436C200.692 61.5436 201.764 59.5766 201.764 57.1502C201.764 54.7238 200.692 52.7569 199.368 52.7569C198.045 52.7569 196.972 54.7238 196.972 57.1502C196.972 59.5766 198.045 61.5436 199.368 61.5436Z" fill="#FFB8B8"/>
<path d="M265.845 268.212V270.888C265.846 271.622 265.71 272.35 265.444 273.035C265.325 273.34 265.182 273.635 265.016 273.916C264.491 274.798 263.745 275.528 262.853 276.035C261.96 276.542 260.952 276.809 259.925 276.808H63.1043C62.0779 276.809 61.0691 276.542 60.1767 276.035C59.2842 275.528 58.5388 274.798 58.0135 273.916C57.8473 273.635 57.7044 273.34 57.586 273.035C57.3194 272.35 57.1834 271.622 57.1849 270.888V268.212C57.1847 267.435 57.3375 266.665 57.6347 265.947C57.932 265.229 58.3677 264.576 58.9171 264.027C59.4664 263.477 60.1187 263.041 60.8366 262.743C61.5545 262.446 62.324 262.292 63.1011 262.292H74.4494V261.045C74.4494 261.012 74.4557 260.98 74.468 260.95C74.4804 260.92 74.4985 260.893 74.5213 260.87C74.5441 260.847 74.5713 260.829 74.6012 260.817C74.631 260.804 74.6631 260.798 74.6954 260.798H80.6156C80.681 260.798 80.7437 260.823 80.79 260.87C80.8363 260.916 80.8624 260.978 80.8625 261.044V262.292H84.5604V261.045C84.5604 261.012 84.5667 260.98 84.579 260.95C84.5914 260.92 84.6095 260.893 84.6323 260.87C84.6552 260.847 84.6823 260.829 84.7122 260.817C84.7421 260.804 84.7741 260.798 84.8064 260.798H90.7266C90.792 260.798 90.8547 260.823 90.901 260.87C90.9473 260.916 90.9734 260.978 90.9735 261.044V262.292H94.6759V261.045C94.6758 261.012 94.6821 260.98 94.6945 260.95C94.7068 260.92 94.7249 260.893 94.7477 260.87C94.7706 260.847 94.7977 260.829 94.8276 260.817C94.8575 260.804 94.8895 260.798 94.9219 260.798H100.842C100.907 260.798 100.97 260.823 101.016 260.87C101.063 260.916 101.089 260.978 101.089 261.044V262.292H104.787V261.045C104.787 261.012 104.793 260.98 104.805 260.95C104.818 260.92 104.836 260.893 104.859 260.87C104.882 260.847 104.909 260.829 104.939 260.817C104.968 260.804 105.001 260.798 105.033 260.798H110.953C111.018 260.798 111.081 260.823 111.127 260.87C111.174 260.916 111.2 260.978 111.2 261.044V262.292H114.898V261.045C114.898 261.012 114.904 260.98 114.916 260.95C114.929 260.92 114.947 260.893 114.97 260.87C114.993 260.847 115.02 260.829 115.05 260.817C115.079 260.804 115.112 260.798 115.144 260.798H121.064C121.129 260.798 121.192 260.824 121.238 260.87C121.285 260.916 121.311 260.978 121.311 261.044V262.292H125.013V261.045C125.013 261.012 125.02 260.98 125.032 260.95C125.044 260.92 125.062 260.893 125.085 260.87C125.108 260.847 125.135 260.829 125.165 260.817C125.195 260.804 125.227 260.798 125.259 260.798H131.18C131.245 260.798 131.308 260.824 131.354 260.87C131.4 260.916 131.426 260.978 131.426 261.044V262.292H135.124V261.045C135.124 261.012 135.131 260.98 135.143 260.95C135.155 260.92 135.173 260.893 135.196 260.87C135.219 260.847 135.246 260.829 135.276 260.817C135.306 260.804 135.338 260.798 135.37 260.798H181.739C181.771 260.798 181.803 260.804 181.833 260.816C181.863 260.829 181.89 260.847 181.913 260.87C181.936 260.892 181.954 260.92 181.967 260.95C181.979 260.979 181.986 261.011 181.986 261.044V262.292H185.688V261.045C185.688 261.012 185.694 260.98 185.707 260.95C185.719 260.92 185.737 260.893 185.76 260.87C185.783 260.847 185.81 260.829 185.84 260.817C185.87 260.804 185.902 260.798 185.934 260.798H191.854C191.92 260.798 191.982 260.825 192.028 260.871C192.074 260.917 192.101 260.979 192.101 261.045V262.292H195.799V261.045C195.799 261.012 195.805 260.98 195.818 260.95C195.83 260.92 195.848 260.893 195.871 260.87C195.894 260.847 195.921 260.829 195.951 260.817C195.981 260.804 196.013 260.798 196.045 260.798H201.965C201.998 260.798 202.03 260.804 202.06 260.816C202.09 260.829 202.117 260.847 202.14 260.87C202.163 260.893 202.181 260.92 202.193 260.95C202.206 260.979 202.212 261.011 202.212 261.044V262.292H205.91V261.045C205.91 261.012 205.917 260.98 205.929 260.95C205.941 260.92 205.959 260.893 205.982 260.87C206.005 260.847 206.032 260.829 206.062 260.817C206.092 260.804 206.124 260.798 206.156 260.798H212.076C212.109 260.798 212.141 260.804 212.171 260.816C212.201 260.829 212.228 260.847 212.251 260.87C212.274 260.893 212.292 260.92 212.304 260.95C212.317 260.979 212.323 261.011 212.323 261.044V262.292H216.026V261.045C216.026 261.012 216.032 260.98 216.044 260.95C216.057 260.92 216.075 260.893 216.098 260.87C216.12 260.847 216.148 260.829 216.177 260.817C216.207 260.804 216.239 260.798 216.272 260.798H222.192C222.257 260.799 222.319 260.825 222.364 260.871C222.409 260.917 222.435 260.98 222.434 261.045V262.292H226.137V261.045C226.137 261.012 226.143 260.98 226.155 260.95C226.168 260.92 226.186 260.893 226.209 260.87C226.231 260.847 226.259 260.829 226.288 260.817C226.318 260.804 226.35 260.798 226.383 260.798H232.303C232.335 260.798 232.367 260.804 232.397 260.816C232.427 260.829 232.454 260.847 232.477 260.87C232.5 260.893 232.518 260.92 232.531 260.95C232.543 260.979 232.55 261.011 232.55 261.044V262.292H236.248V261.045C236.248 261.012 236.254 260.98 236.266 260.95C236.279 260.92 236.297 260.893 236.32 260.87C236.342 260.847 236.37 260.829 236.399 260.817C236.429 260.804 236.461 260.798 236.494 260.798H242.414C242.446 260.798 242.478 260.804 242.508 260.816C242.538 260.829 242.565 260.847 242.588 260.87C242.611 260.893 242.629 260.92 242.642 260.95C242.654 260.979 242.661 261.011 242.661 261.044V262.292H259.925C261.495 262.292 263 262.915 264.11 264.025C265.22 265.134 265.844 266.639 265.845 268.209L265.845 268.212Z" fill="#3F3D56"/>
<path d="M428 276.118H0V277H428V276.118Z" fill="#3F3D56"/>
<path d="M249.996 155.525H69.7064C69.0547 155.525 68.4094 155.653 67.8074 155.903C67.2053 156.152 66.6583 156.518 66.1975 156.978C65.7367 157.439 65.3711 157.986 65.1218 158.589C64.8724 159.191 64.744 159.836 64.744 160.488V260.955C64.744 262.271 65.2668 263.533 66.1974 264.464C67.1281 265.395 68.3902 265.918 69.7063 265.918H249.996C251.312 265.918 252.574 265.395 253.505 264.464C254.436 263.533 254.958 262.271 254.958 260.955V160.488C254.958 159.172 254.436 157.909 253.505 156.978C252.574 156.048 251.312 155.525 249.996 155.525Z" fill="#3F3D56"/>
<path d="M159.996 201.621C166.081 201.621 171.015 196.687 171.015 190.6C171.015 184.514 166.081 179.58 159.996 179.58C153.91 179.58 148.977 184.514 148.977 190.6C148.977 196.687 153.91 201.621 159.996 201.621Z" fill="#68B6FC"/>
<path d="M228.209 117.794L283.835 61.7212H310.097V60.8395H283.467L283.338 60.9705L227.582 117.174L228.209 117.794Z" fill="#3F3D56"/>
<path d="M406.623 38.7001H342.174V44.4439H406.623V38.7001Z" fill="#68B6FC"/>
<path d="M334.319 48.0758H320.675V34.4301H334.319V48.0758ZM321.557 47.1941H333.437V35.3117H321.557L321.557 47.1941Z" fill="#3F3D56"/>
<path d="M406.623 57.846H342.174V63.5898H406.623V57.846Z" fill="#68B6FC"/>
<path d="M334.319 67.2215H320.675V53.576H334.319V67.2215ZM321.557 66.3399H333.437V54.4577H321.557L321.557 66.3399Z" fill="#3F3D56"/>
<path d="M406.623 76.9919H342.174V82.7356H406.623V76.9919Z" fill="#68B6FC"/>
<path d="M334.319 86.3673H320.675V72.7218H334.319V86.3673ZM321.557 85.4856H333.437V73.6034H321.557L321.557 85.4856Z" fill="#3F3D56"/>
</g>
<defs>
<clipPath id="clip0">
<rect width="428" height="277" fill="white"/>
</clipPath>
</defs>
</svg>
