<svg width="67" height="78" viewBox="0 0 67 78" fill="none" xmlns="http://www.w3.org/2000/svg">
<path d="M62.1682 78H4.81449C3.46851 78 2.33439 77.5303 1.41215 76.5908C0.489901 75.6514 0.0287781 74.4961 0.0287781 73.125V4.95117C0.0287781 3.58008 0.489901 2.4248 1.41215 1.48535C2.33439 0.545898 3.46851 0.0761719 4.81449 0.0761719H38.3145V26.8887C38.3145 27.5488 38.5388 28.1201 38.9875 28.6025C39.4361 29.085 40.0094 29.3262 40.7073 29.3262H66.954V73.125C66.954 74.4961 66.4928 75.6514 65.5706 76.5908C64.6483 77.5303 63.5142 78 62.1682 78ZM27.8457 44.4844C28.4439 43.875 28.743 43.1133 28.743 42.1992C28.743 41.2852 28.4439 40.5107 27.8457 39.876C27.2475 39.2412 26.5247 38.9238 25.6772 38.9238C24.8297 38.9238 24.1069 39.2539 23.5087 39.9141L10.4227 51.2637C9.82453 51.9238 9.52542 52.6982 9.52542 53.5869C9.52542 54.4756 9.82453 55.25 10.4227 55.9102L23.5087 67.2598C24.1069 67.9199 24.8297 68.25 25.6772 68.25C26.5247 68.25 27.2475 67.9326 27.8457 67.2979C28.4439 66.6631 28.743 65.8887 28.743 64.9746C28.743 64.0605 28.4439 63.2988 27.8457 62.6895L16.9283 53.625L27.8457 44.4844ZM56.56 51.2637L43.5488 39.9141C42.9506 39.2539 42.2278 38.9238 41.3803 38.9238C40.5328 38.9238 39.81 39.2412 39.2118 39.876C38.6136 40.5107 38.3145 41.2852 38.3145 42.1992C38.3145 43.1133 38.6136 43.875 39.2118 44.4844L50.0544 53.625L39.2118 62.6895C38.6136 63.2988 38.3145 64.0605 38.3145 64.9746C38.3145 65.8887 38.6136 66.6631 39.2118 67.2979C39.81 67.9326 40.5328 68.25 41.3803 68.25C42.2278 68.25 42.9506 67.9199 43.5488 67.2598L56.56 55.9102C57.2081 55.25 57.5321 54.4756 57.5321 53.5869C57.5321 52.6982 57.2081 51.9238 56.56 51.2637ZM43.1002 0C44.3963 0 45.493 0.457031 46.3904 1.37109L65.5332 20.9473C66.4804 21.9121 66.954 23.0801 66.954 24.4512H43.1002V0Z" fill="#68B6FC"/>
</svg>
