<svg width="91" height="91" viewBox="0 0 91 91" fill="none" xmlns="http://www.w3.org/2000/svg">
<path fill-rule="evenodd" clip-rule="evenodd" d="M27.6071 23.5804C27.872 23.8445 28.0821 24.1583 28.2254 24.5038C28.3688 24.8493 28.4426 25.2197 28.4426 25.5937C28.4426 25.9678 28.3688 26.3382 28.2254 26.6837C28.0821 27.0291 27.872 27.343 27.6071 27.6071L9.70857 45.5L27.6071 63.3929C28.1411 63.9268 28.4411 64.6511 28.4411 65.4062C28.4411 66.1614 28.1411 66.8856 27.6071 67.4196C27.0731 67.9536 26.3489 68.2536 25.5938 68.2536C24.8386 68.2536 24.1144 67.9536 23.5804 67.4196L3.67413 47.5134C3.4093 47.2492 3.19919 46.9354 3.05582 46.5899C2.91246 46.2444 2.83867 45.874 2.83867 45.5C2.83867 45.1259 2.91246 44.7556 3.05582 44.4101C3.19919 44.0646 3.4093 43.7508 3.67413 43.4866L23.5804 23.5804C23.8445 23.3155 24.1583 23.1054 24.5038 22.9621C24.8493 22.8187 25.2197 22.7449 25.5938 22.7449C25.9678 22.7449 26.3382 22.8187 26.6837 22.9621C27.0292 23.1054 27.343 23.3155 27.6071 23.5804V23.5804ZM63.3929 23.5804C63.1281 23.8445 62.9179 24.1583 62.7746 24.5038C62.6312 24.8493 62.5574 25.2197 62.5574 25.5937C62.5574 25.9678 62.6312 26.3382 62.7746 26.6837C62.9179 27.0291 63.1281 27.343 63.3929 27.6071L81.2914 45.5L63.3929 63.3929C63.1285 63.6573 62.9187 63.9711 62.7757 64.3166C62.6326 64.6621 62.5589 65.0323 62.5589 65.4062C62.5589 65.7802 62.6326 66.1504 62.7757 66.4959C62.9187 66.8413 63.1285 67.1552 63.3929 67.4196C63.6573 67.684 63.9712 67.8937 64.3166 68.0368C64.6621 68.1799 65.0323 68.2536 65.4063 68.2536C65.7802 68.2536 66.1504 68.1799 66.4959 68.0368C66.8413 67.8937 67.1552 67.684 67.4196 67.4196L87.3259 47.5134C87.5907 47.2492 87.8008 46.9354 87.9442 46.5899C88.0875 46.2444 88.1613 45.874 88.1613 45.5C88.1613 45.1259 88.0875 44.7556 87.9442 44.4101C87.8008 44.0646 87.5907 43.7508 87.3259 43.4866L67.4196 23.5804C67.1555 23.3155 66.8417 23.1054 66.4962 22.9621C66.1507 22.8187 65.7803 22.7449 65.4063 22.7449C65.0322 22.7449 64.6618 22.8187 64.3163 22.9621C63.9709 23.1054 63.657 23.3155 63.3929 23.5804V23.5804ZM57.7111 5.81261C58.4311 6.03541 59.0333 6.53497 59.3852 7.2015C59.7371 7.86804 59.8101 8.64703 59.5879 9.3673L36.8379 83.3048C36.5943 83.9981 36.0918 84.5702 35.4356 84.9012C34.7794 85.2321 34.0206 85.2962 33.3183 85.08C32.6159 84.8638 32.0245 84.384 31.6681 83.7413C31.3117 83.0987 31.2179 82.343 31.4064 81.6327L54.1564 7.69518C54.3792 6.97512 54.8787 6.37296 55.5453 6.02103C56.2118 5.6691 56.9908 5.59618 57.7111 5.8183V5.81261Z" fill="#68B6FC"/>
</svg>
