<svg width="91" height="91" viewBox="0 0 91 91" fill="none" xmlns="http://www.w3.org/2000/svg">
<path d="M64.4584 30.3333V7.58331H75.8334C76.839 7.58331 77.8034 7.98279 78.5145 8.69387C79.2255 9.40494 79.625 10.3694 79.625 11.375V26.5416C79.625 27.5473 79.2255 28.5117 78.5145 29.2228C77.8034 29.9338 76.839 30.3333 75.8334 30.3333H64.4584ZM56.875 83.4166C56.875 84.4223 56.4755 85.3867 55.7645 86.0978C55.0534 86.8088 54.089 87.2083 53.0834 87.2083H37.9167C36.9111 87.2083 35.9467 86.8088 35.2356 86.0978C34.5245 85.3867 34.125 84.4223 34.125 83.4166V30.3333H9.47919V23.0306C9.47965 22.3684 9.65351 21.7179 9.98346 21.1438C10.3134 20.5698 10.788 20.0921 11.3599 19.7584L32.2292 7.58331H56.875V83.4166Z" fill="#68B6FC"/>
</svg>
